  0
SECTION
  2
HEADER
  9
$ACADVER
  1
AC1018
  9
$ACADMAINTVER
 70
     0
  9
$DWGCODEPAGE
  3
ANSI_1252
  9
$EXTMIN
 10
452963.901282487
 20
7387658.60417306
 30
0.0
  9
$EXTMAX
 10
462160.075788403
 20
7397381.94791817
 30
0.0
  9
$LIMMIN
 10
0.0
 20
0.0
  9
$LIMMAX
 10
12.0
 20
9.0
  9
$ORTHOMODE
 70
     0
  9
$REGENMODE
 70
     1
  9
$FILLMODE
 70
     1
  9
$QTEXTMODE
 70
     0
  9
$MIRRTEXT
 70
     1
  9
$LTSCALE
 40
1.0
  9
$ATTMODE
 70
     1
  9
$TEXTSIZE
 40
0.2
  9
$TRACEWID
 40
0.05
  9
$TEXTSTYLE
  7
Standard
  9
$CLAYER
  8
0
  9
$CELTYPE
  6
ByLayer
  9
$CECOLOR
 62
   256
  9
$CELTSCALE
 40
1.0
  9
$DISPSILH
 70
     0
  9
$LUNITS
 70
     2
  9
$LUPREC
 70
     4
  9
$SKETCHINC
 40
0.1
  9
$FILLETRAD
 40
0.5
  9
$AUNITS
 70
     0
  9
$AUPREC
 70
     0
  9
$MENU
  1
.
  9
$ELEVATION
 40
0.0
  9
$PELEVATION
 40
0.0
  9
$THICKNESS
 40
0.0
  9
$LIMCHECK
 70
     0
  9
$CHAMFERA
 40
0.5
  9
$CHAMFERB
 40
0.5
  9
$CHAMFERC
 40
1.0
  9
$CHAMFERD
 40
0.0
  9
$SKPOLY
 70
     0
  9
$ANGBASE
 50
0.0
  9
$ANGDIR
 70
     0
  9
$PDMODE
 70
     0
  9
$PDSIZE
 40
0.0
  9
$PLINEWID
 40
0.0
  9
$SPLFRAME
 70
     0
  9
$SPLINETYPE
 70
     6
  9
$SPLINESEGS
 70
     8
  9
$HANDSEED
  5
00020001
  9
$SURFTAB1
 70
     6
  9
$SURFTAB2
 70
     6
  9
$SURFTYPE
 70
     6
  9
$SURFU
 70
     6
  9
$SURFV
 70
     6
  9
$UCSBASE
  2

  9
$UCSNAME
  2

  9
$UCSORG
 10
0.0
 20
0.0
 30
0.0
  9
$UCSXDIR
 10
1.0
 20
0.0
 30
0.0
  9
$UCSYDIR
 10
0.0
 20
1.0
 30
0.0
  9
$UCSORTHOREF
  2

  9
$UCSORTHOVIEW
 70
     0
  9
$UCSORGTOP
 10
0.0
 20
0.0
 30
0.0
  9
$UCSORGBOTTOM
 10
0.0
 20
0.0
 30
0.0
  9
$UCSORGLEFT
 10
0.0
 20
0.0
 30
0.0
  9
$UCSORGRIGHT
 10
0.0
 20
0.0
 30
0.0
  9
$UCSORGFRONT
 10
0.0
 20
0.0
 30
0.0
  9
$UCSORGBACK
 10
0.0
 20
0.0
 30
0.0
  9
$PUCSBASE
  2

  9
$PUCSNAME
  2

  9
$PUCSORG
 10
0.0
 20
0.0
 30
0.0
  9
$PUCSXDIR
 10
1.0
 20
0.0
 30
0.0
  9
$PUCSYDIR
 10
0.0
 20
1.0
 30
0.0
  9
$PUCSORTHOREF
  2

  9
$PUCSORTHOVIEW
 70
     0
  9
$PUCSORGTOP
 10
0.0
 20
0.0
 30
0.0
  9
$PUCSORGBOTTOM
 10
0.0
 20
0.0
 30
0.0
  9
$PUCSORGLEFT
 10
0.0
 20
0.0
 30
0.0
  9
$PUCSORGRIGHT
 10
0.0
 20
0.0
 30
0.0
  9
$PUCSORGFRONT
 10
0.0
 20
0.0
 30
0.0
  9
$PUCSORGBACK
 10
0.0
 20
0.0
 30
0.0
  9
$WORLDVIEW
 70
     1
  9
$SHADEDGE
 70
     3
  9
$SHADEDIF
 70
    70
  9
$TILEMODE
 70
     1
  9
$MAXACTVP
 70
    64
  9
$PINSBASE
 10
0.0
 20
0.0
 30
0.0
  9
$PLIMCHECK
 70
     0
  9
$PEXTMIN
 10
1.000000000000000E+20
 20
1.000000000000000E+20
 30
1.000000000000000E+20
  9
$PEXTMAX
 10
-1.000000000000000E+20
 20
-1.000000000000000E+20
 30
-1.000000000000000E+20
  9
$PLIMMIN
 10
0.0
 20
0.0
  9
$PLIMMAX
 10
12.0
 20
9.0
  9
$UNITMODE
 70
     0
  9
$VISRETAIN
 70
     1
  9
$PLINEGEN
 70
     0
  9
$PSLTSCALE
 70
     1
  9
$TREEDEPTH
 70
  3020
  9
$CMLSTYLE
  2
Standard
  9
$CMLJUST
 70
     0
  9
$CMLSCALE
 40
1.0
  9
$PROXYGRAPHICS
 70
     1
  9
$MEASUREMENT
 70
     0
  9
$CELWEIGHT
370
    -1
  9
$ENDCAPS
280
     0
  9
$JOINSTYLE
280
     0
  9
$LWDISPLAY
290
     0
  9
$INSUNITS
 70
     1
  9
$HYPERLINKBASE
  1

  9
$STYLESHEET
  1

  9
$XEDIT
290
     1
  9
$CEPSNTYPE
380
     0
  9
$PSTYLEMODE
290
     1
  9
$EXTNAMES
290
     1
  9
$PSVPSCALE
 40
0.0
  9
$OLESTARTUP
290
     0
  9
$SORTENTS
280
   127
  9
$INDEXCTL
280
     0
  9
$HIDETEXT
280
     1
  9
$XCLIPFRAME
290
     0
  9
$HALOGAP
280
     0
  9
$OBSCOLOR
 70
   257
  9
$OBSLTYPE
280
     0
  9
$INTERSECTIONDISPLAY
280
     0
  9
$INTERSECTIONCOLOR
 70
   257
  9
$DIMASSOC
280
     2
  9
$PROJECTNAME
  1

  0
ENDSEC
  0
SECTION
  2
CLASSES
  0
CLASS
  1
ACDBDICTIONARYWDFLT
  2
AcDbDictionaryWithDefault
  3
ObjectDBX Classes
 90
        0
 91
        4
280
     0
281
     0
  0
ENDSEC
  0
SECTION
  2
TABLES
  0
TABLE
  2
VPORT
  5
8
330
0
100
AcDbSymbolTable
 70
     1
  0
VPORT
  5
29
330
8
100
AcDbSymbolTableRecord
100
AcDbViewportTableRecord
  2
*Active
 70
     0
 10
0.0
 20
0.0
 11
1.0
 21
1.0
 12
80.25
 22
106.4409457059851
 13
0.0
 23
0.0
 14
0.5
 24
0.5
 15
0.5
 25
0.5
 16
0.0
 26
0.0
 36
1.0
 17
0.0
 27
0.0
 37
0.0
 40
113.3818914119703
 41
0.8863849310366128
 42
50.0
 43
0.0
 44
0.0
 50
0.0
 51
0.0
 71
     0
 72
  1000
 73
     1
 74
     3
 75
     0
 76
     0
 77
     0
 78
     0
281
     0
 65
     1
110
0.0
120
0.0
130
0.0
111
1.0
121
0.0
131
0.0
112
0.0
122
1.0
132
0.0
 79
     0
146
0.0
  0
ENDTAB
  0
TABLE
  2
LTYPE
  5
5
330
0
100
AcDbSymbolTable
 70
     1
  0
LTYPE
  5
14
330
5
100
AcDbSymbolTableRecord
100
AcDbLinetypeTableRecord
  2
ByBlock
 70
     0
  3

 72
    65
 73
     0
 40
0.0
  0
LTYPE
  5
15
330
5
100
AcDbSymbolTableRecord
100
AcDbLinetypeTableRecord
  2
ByLayer
 70
     0
  3

 72
    65
 73
     0
 40
0.0
  0
LTYPE
  5
16
330
5
100
AcDbSymbolTableRecord
100
AcDbLinetypeTableRecord
  2
Continuous
 70
     0
  3
Solid line
 72
    65
 73
     0
 40
0.0
  0
ENDTAB
  0
TABLE
  2
LAYER
  5
2
330
0
100
AcDbSymbolTable
 70
     1
  0
LAYER
  5
10
330
2
100
AcDbSymbolTableRecord
100
AcDbLayerTableRecord
  2
0
 70
     0
 62
     7
  6
Continuous
370
    -3
390
F
  0
ENDTAB
  0
TABLE
  2
STYLE
  5
3
330
0
100
AcDbSymbolTable
 70
     1
  0
STYLE
  5
11
330
3
100
AcDbSymbolTableRecord
100
AcDbTextStyleTableRecord
  2
Standard
 70
     0
 40
0.0
 41
1.0
 50
0.0
 71
     0
 42
0.2
  3
txt
  4

  0
ENDTAB
  0
TABLE
  2
VIEW
  5
6
330
0
100
AcDbSymbolTable
 70
     0
  0
ENDTAB
  0
TABLE
  2
UCS
  5
7
330
0
100
AcDbSymbolTable
 70
     0
  0
ENDTAB
  0
TABLE
  2
APPID
  5
9
330
0
100
AcDbSymbolTable
 70
     1
  0
APPID
  5
12
330
9
100
AcDbSymbolTableRecord
100
AcDbRegAppTableRecord
  2
ACAD
 70
     0
  0
ENDTAB
  0
TABLE
  2
DIMSTYLE
  5
A
330
0
100
AcDbSymbolTable
 70
     1
100
AcDbDimStyleTable
  0
DIMSTYLE
105
27
330
A
100
AcDbSymbolTableRecord
100
AcDbDimStyleTableRecord
  2
Standard
 70
     0
340
11
  0
ENDTAB
  0
TABLE
  2
BLOCK_RECORD
  5
1
330
0
100
AcDbSymbolTable
 70
     1
  0
BLOCK_RECORD
  5
1F
330
1
100
AcDbSymbolTableRecord
100
AcDbBlockTableRecord
  2
*Model_Space
340
22
  0
BLOCK_RECORD
  5
1B
330
1
100
AcDbSymbolTableRecord
100
AcDbBlockTableRecord
  2
*Paper_Space
340
1E
  0
ENDTAB
  0
ENDSEC
  0
SECTION
  2
BLOCKS
  0
BLOCK
  5
20
330
1F
100
AcDbEntity
  8
0
100
AcDbBlockBegin
  2
*Model_Space
 70
     0
 10
0.0
 20
0.0
 30
0.0
  3
*Model_Space
  1

  0
ENDBLK
  5
21
330
1F
100
AcDbEntity
  8
0
100
AcDbBlockEnd
  0
BLOCK
  5
1C
330
1B
100
AcDbEntity
 67
     1
  8
0
100
AcDbBlockBegin
  2
*Paper_Space
 70
     0
 10
0.0
 20
0.0
 30
0.0
  3
*Paper_Space
  1

  0
ENDBLK
  5
1D
330
1B
100
AcDbEntity
 67
     1
  8
0
100
AcDbBlockEnd
  0
ENDSEC
  0
SECTION
  2
ENTITIES
  0
HATCH
  5
20000
100
AcDbEntity
  8
0
100
AcDbHatch
 10
0
 20
0
 30
0
210
0
220
0
230
1
  2
SOLID
 70
1
 71
0
 91
1
 92
2
 72
0
 73
1
 93
959
 10
454721.132079796
 20
7387658.60417306
 10
454691.84489984
 20
7387658.60417306
 10
454691.84489984
 20
7387687.89135301
 10
454662.557719885
 20
7387687.89135301
 10
454662.557719885
 20
7387717.17853297
 10
454633.27053993
 20
7387717.17853297
 10
454633.27053993
 20
7387775.75289288
 10
454603.983359975
 20
7387775.75289288
 10
454603.983359975
 20
7387805.04007283
 10
454574.69618002
 20
7387805.04007283
 10
454574.69618002
 20
7387834.32725279
 10
454545.409000065
 20
7387834.32725279
 10
454545.409000065
 20
7387863.61443274
 10
454516.121820109
 20
7387863.61443274
 10
454516.121820109
 20
7387892.9016127
 10
454486.834640154
 20
7387892.9016127
 10
454486.834640154
 20
7387922.18879265
 10
454428.260280244
 20
7387922.18879265
 10
454428.260280244
 20
7387951.47597261
 10
454398.973100289
 20
7387951.47597261
 10
454398.973100289
 20
7387980.76315256
 10
454340.398740379
 20
7387980.76315256
 10
454340.398740379
 20
7388010.05033252
 10
454252.537200513
 20
7388010.05033252
 10
454252.537200513
 20
7388039.33751247
 10
454223.250020558
 20
7388039.33751247
 10
454223.250020558
 20
7388127.19905234
 10
454193.962840603
 20
7388127.19905234
 10
454193.962840603
 20
7388156.48623229
 10
454164.675660648
 20
7388156.48623229
 10
454164.675660648
 20
7388273.63495211
 10
454193.962840603
 20
7388273.63495211
 10
454193.962840603
 20
7388302.92213207
 10
454223.250020558
 20
7388302.92213207
 10
454223.250020558
 20
7388332.20931203
 10
454252.537200513
 20
7388332.20931203
 10
454252.537200513
 20
7388390.78367194
 10
454281.824380468
 20
7388390.78367194
 10
454281.824380468
 20
7388449.35803185
 10
454252.537200513
 20
7388449.35803185
 10
454252.537200513
 20
7388478.6452118
 10
454223.250020558
 20
7388478.6452118
 10
454223.250020558
 20
7388507.93239176
 10
454193.962840603
 20
7388507.93239176
 10
454193.962840603
 20
7388625.08111158
 10
454223.250020558
 20
7388625.08111158
 10
454223.250020558
 20
7388654.36829153
 10
454252.537200513
 20
7388654.36829153
 10
454252.537200513
 20
7388683.65547149
 10
454281.824380468
 20
7388683.65547149
 10
454281.824380468
 20
7388712.94265144
 10
454311.111560423
 20
7388712.94265144
 10
454311.111560423
 20
7388830.09137126
 10
454340.398740379
 20
7388830.09137126
 10
454340.398740379
 20
7388888.66573117
 10
454369.685920334
 20
7388888.66573117
 10
454369.685920334
 20
7388976.52727104
 10
454311.111560423
 20
7388976.52727104
 10
454311.111560423
 20
7389005.81445099
 10
454281.824380468
 20
7389005.81445099
 10
454281.824380468
 20
7389035.10163095
 10
454223.250020558
 20
7389035.10163095
 10
454223.250020558
 20
7389064.3888109
 10
454164.675660648
 20
7389064.3888109
 10
454164.675660648
 20
7389122.96317081
 10
454135.388480693
 20
7389122.96317081
 10
454135.388480693
 20
7389152.25035077
 10
454106.101300737
 20
7389152.25035077
 10
454106.101300737
 20
7389181.53753072
 10
454076.814120782
 20
7389181.53753072
 10
454076.814120782
 20
7389298.68625055
 10
454106.101300737
 20
7389298.68625055
 10
454106.101300737
 20
7389386.54779041
 10
454135.388480693
 20
7389386.54779041
 10
454135.388480693
 20
7389415.83497037
 10
454106.101300737
 20
7389415.83497037
 10
454106.101300737
 20
7389503.69651023
 10
454076.814120782
 20
7389503.69651023
 10
454076.814120782
 20
7389562.27087014
 10
454047.526940827
 20
7389562.27087014
 10
454047.526940827
 20
7389650.13241001
 10
454076.814120782
 20
7389650.13241001
 10
454076.814120782
 20
7389708.70676992
 10
454047.526940827
 20
7389708.70676992
 10
454047.526940827
 20
7389737.99394987
 10
454018.239760872
 20
7389737.99394987
 10
454018.239760872
 20
7389767.28112983
 10
453930.378221006
 20
7389767.28112983
 10
453930.378221006
 20
7389796.56830978
 10
453901.091041051
 20
7389796.56830978
 10
453901.091041051
 20
7389825.85548974
 10
453871.803861096
 20
7389825.85548974
 10
453871.803861096
 20
7389884.42984965
 10
453842.516681141
 20
7389884.42984965
 10
453842.516681141
 20
7389913.7170296
 10
453813.229501186
 20
7389913.7170296
 10
453813.229501186
 20
7390030.86574942
 10
453725.36796132
 20
7390030.86574942
 10
453725.36796132
 20
7390177.3016492
 10
453696.080781365
 20
7390177.3016492
 10
453696.080781365
 20
7390206.58882916
 10
453666.79360141
 20
7390206.58882916
 10
453666.79360141
 20
7390235.87600911
 10
453637.506421455
 20
7390235.87600911
 10
453637.506421455
 20
7390265.16318907
 10
453549.64488159
 20
7390265.16318907
 10
453549.64488159
 20
7390382.31190889
 10
453520.357701634
 20
7390382.31190889
 10
453520.357701634
 20
7390411.59908884
 10
453491.070521679
 20
7390411.59908884
 10
453491.070521679
 20
7390440.8862688
 10
453461.783341724
 20
7390440.8862688
 10
453461.783341724
 20
7390470.17344875
 10
453432.496161769
 20
7390470.17344875
 10
453432.496161769
 20
7390499.46062871
 10
453403.208981814
 20
7390499.46062871
 10
453403.208981814
 20
7390763.0452483
 10
453432.496161769
 20
7390763.0452483
 10
453432.496161769
 20
7390850.90678817
 10
453461.783341724
 20
7390850.90678817
 10
453461.783341724
 20
7390909.48114808
 10
453491.070521679
 20
7390909.48114808
 10
453491.070521679
 20
7390968.05550799
 10
453520.357701634
 20
7390968.05550799
 10
453520.357701634
 20
7391026.6298679
 10
453549.64488159
 20
7391026.6298679
 10
453549.64488159
 20
7391055.91704785
 10
453578.932061545
 20
7391055.91704785
 10
453578.932061545
 20
7391085.20422781
 10
453608.2192415
 20
7391085.20422781
 10
453608.2192415
 20
7391114.49140776
 10
453666.79360141
 20
7391114.49140776
 10
453666.79360141
 20
7391143.77858772
 10
453696.080781365
 20
7391143.77858772
 10
453696.080781365
 20
7391173.06576767
 10
453666.79360141
 20
7391173.06576767
 10
453666.79360141
 20
7391260.92730754
 10
453461.783341724
 20
7391260.92730754
 10
453461.783341724
 20
7391290.2144875
 10
453432.496161769
 20
7391290.2144875
 10
453432.496161769
 20
7391260.92730754
 10
453373.921801859
 20
7391260.92730754
 10
453373.921801859
 20
7391231.64012759
 10
453344.634621904
 20
7391231.64012759
 10
453344.634621904
 20
7391202.35294763
 10
453315.347441948
 20
7391202.35294763
 10
453315.347441948
 20
7391173.06576767
 10
453286.060261993
 20
7391173.06576767
 10
453286.060261993
 20
7391143.77858772
 10
453256.773082038
 20
7391143.77858772
 10
453256.773082038
 20
7391202.35294763
 10
453227.485902083
 20
7391202.35294763
 10
453227.485902083
 20
7391260.92730754
 10
453198.198722128
 20
7391260.92730754
 10
453198.198722128
 20
7391378.07602736
 10
453168.911542173
 20
7391378.07602736
 10
453168.911542173
 20
7391407.36320732
 10
453139.624362217
 20
7391407.36320732
 10
453139.624362217
 20
7391553.79910709
 10
453168.911542173
 20
7391553.79910709
 10
453168.911542173
 20
7391700.23500687
 10
453139.624362217
 20
7391700.23500687
 10
453139.624362217
 20
7391758.80936678
 10
453110.337182262
 20
7391758.80936678
 10
453110.337182262
 20
7391788.09654673
 10
453081.050002307
 20
7391788.09654673
 10
453081.050002307
 20
7391817.38372669
 10
453051.762822352
 20
7391817.38372669
 10
453051.762822352
 20
7391846.67090664
 10
453022.475642397
 20
7391846.67090664
 10
453022.475642397
 20
7392022.39398637
 10
452993.188462442
 20
7392022.39398637
 10
452993.188462442
 20
7392080.96834628
 10
452963.901282487
 20
7392080.96834628
 10
452963.901282487
 20
7392110.25552624
 10
452993.188462442
 20
7392110.25552624
 10
452993.188462442
 20
7392139.54270619
 10
453081.050002307
 20
7392139.54270619
 10
453081.050002307
 20
7392198.1170661
 10
453110.337182262
 20
7392198.1170661
 10
453110.337182262
 20
7392227.40424606
 10
453168.911542173
 20
7392227.40424606
 10
453168.911542173
 20
7392256.69142602
 10
453198.198722128
 20
7392256.69142602
 10
453198.198722128
 20
7392344.55296588
 10
453227.485902083
 20
7392344.55296588
 10
453227.485902083
 20
7392373.84014584
 10
453286.060261993
 20
7392373.84014584
 10
453286.060261993
 20
7392432.41450575
 10
453315.347441948
 20
7392432.41450575
 10
453315.347441948
 20
7392461.7016857
 10
453403.208981814
 20
7392461.7016857
 10
453403.208981814
 20
7392490.98886566
 10
453432.496161769
 20
7392490.98886566
 10
453432.496161769
 20
7392549.56322557
 10
453608.2192415
 20
7392549.56322557
 10
453608.2192415
 20
7392666.71194539
 10
453637.506421455
 20
7392666.71194539
 10
453637.506421455
 20
7392783.86066521
 10
453754.655141276
 20
7392783.86066521
 10
453754.655141276
 20
7392813.14784516
 10
453725.36796132
 20
7392813.14784516
 10
453725.36796132
 20
7392842.43502512
 10
453754.655141276
 20
7392842.43502512
 10
453754.655141276
 20
7392901.00938503
 10
453783.942321231
 20
7392901.00938503
 10
453783.942321231
 20
7393047.4452848
 10
453813.229501186
 20
7393047.4452848
 10
453813.229501186
 20
7393106.01964471
 10
453842.516681141
 20
7393106.01964471
 10
453842.516681141
 20
7393135.30682467
 10
453871.803861096
 20
7393135.30682467
 10
453871.803861096
 20
7393164.59400462
 10
453842.516681141
 20
7393164.59400462
 10
453842.516681141
 20
7393369.60426431
 10
453871.803861096
 20
7393369.60426431
 10
453871.803861096
 20
7393398.89144427
 10
454106.101300737
 20
7393398.89144427
 10
454106.101300737
 20
7393369.60426431
 10
454252.537200513
 20
7393369.60426431
 10
454252.537200513
 20
7393398.89144427
 10
454311.111560423
 20
7393398.89144427
 10
454311.111560423
 20
7393428.17862422
 10
454398.973100289
 20
7393428.17862422
 10
454398.973100289
 20
7393457.46580418
 10
454486.834640154
 20
7393457.46580418
 10
454486.834640154
 20
7393545.32734404
 10
454457.547460199
 20
7393545.32734404
 10
454457.547460199
 20
7393633.18888391
 10
454428.260280244
 20
7393633.18888391
 10
454428.260280244
 20
7393662.47606386
 10
454398.973100289
 20
7393662.47606386
 10
454398.973100289
 20
7393691.76324382
 10
454369.685920334
 20
7393691.76324382
 10
454369.685920334
 20
7393662.47606386
 10
454106.101300737
 20
7393662.47606386
 10
454106.101300737
 20
7393691.76324382
 10
454076.814120782
 20
7393691.76324382
 10
454076.814120782
 20
7393750.33760373
 10
454106.101300737
 20
7393750.33760373
 10
454106.101300737
 20
7393838.19914359
 10
454076.814120782
 20
7393838.19914359
 10
454076.814120782
 20
7393926.06068346
 10
454047.526940827
 20
7393926.06068346
 10
454047.526940827
 20
7394072.49658323
 10
454106.101300737
 20
7394072.49658323
 10
454106.101300737
 20
7394101.78376319
 10
454164.675660648
 20
7394101.78376319
 10
454164.675660648
 20
7394131.07094315
 10
454193.962840603
 20
7394131.07094315
 10
454193.962840603
 20
7394160.3581231
 10
454223.250020558
 20
7394160.3581231
 10
454223.250020558
 20
7394189.64530305
 10
454252.537200513
 20
7394189.64530305
 10
454252.537200513
 20
7394218.93248301
 10
454281.824380468
 20
7394218.93248301
 10
454281.824380468
 20
7394248.21966297
 10
454311.111560423
 20
7394248.21966297
 10
454311.111560423
 20
7394277.50684292
 10
454340.398740379
 20
7394277.50684292
 10
454340.398740379
 20
7394306.79402288
 10
454369.685920334
 20
7394306.79402288
 10
454369.685920334
 20
7394336.08120283
 10
454340.398740379
 20
7394336.08120283
 10
454340.398740379
 20
7394365.36838279
 10
454311.111560423
 20
7394365.36838279
 10
454311.111560423
 20
7394453.22992265
 10
454340.398740379
 20
7394453.22992265
 10
454340.398740379
 20
7394570.37864247
 10
454311.111560423
 20
7394570.37864247
 10
454311.111560423
 20
7394599.66582243
 10
454340.398740379
 20
7394599.66582243
 10
454340.398740379
 20
7394628.95300238
 10
454428.260280244
 20
7394628.95300238
 10
454428.260280244
 20
7394599.66582243
 10
454457.547460199
 20
7394599.66582243
 10
454457.547460199
 20
7394570.37864247
 10
454633.27053993
 20
7394570.37864247
 10
454633.27053993
 20
7394658.24018234
 10
454603.983359975
 20
7394658.24018234
 10
454603.983359975
 20
7394804.67608211
 10
454633.27053993
 20
7394804.67608211
 10
454633.27053993
 20
7394833.96326207
 10
454662.557719885
 20
7394833.96326207
 10
454662.557719885
 20
7394863.25044202
 10
454691.84489984
 20
7394863.25044202
 10
454691.84489984
 20
7394921.82480193
 10
454721.132079796
 20
7394921.82480193
 10
454721.132079796
 20
7394951.11198189
 10
454750.419259751
 20
7394951.11198189
 10
454750.419259751
 20
7394980.39916184
 10
454955.429519437
 20
7394980.39916184
 10
454955.429519437
 20
7395038.97352175
 10
454984.716699392
 20
7395038.97352175
 10
454984.716699392
 20
7395068.26070171
 10
455014.003879347
 20
7395068.26070171
 10
455014.003879347
 20
7395126.83506162
 10
455072.578239257
 20
7395126.83506162
 10
455072.578239257
 20
7395156.12224158
 10
455131.152599168
 20
7395156.12224158
 10
455131.152599168
 20
7395126.83506162
 10
455160.439779123
 20
7395126.83506162
 10
455160.439779123
 20
7395156.12224158
 10
455394.737218764
 20
7395156.12224158
 10
455394.737218764
 20
7395185.40942153
 10
455424.024398719
 20
7395185.40942153
 10
455424.024398719
 20
7395214.69660148
 10
455453.311578674
 20
7395214.69660148
 10
455453.311578674
 20
7395243.98378144
 10
455511.885938585
 20
7395243.98378144
 10
455511.885938585
 20
7395273.2709614
 10
455629.034658405
 20
7395273.2709614
 10
455629.034658405
 20
7395302.55814135
 10
455687.609018315
 20
7395302.55814135
 10
455687.609018315
 20
7395361.13250126
 10
455775.470558181
 20
7395361.13250126
 10
455775.470558181
 20
7395331.84532131
 10
455863.332098046
 20
7395331.84532131
 10
455863.332098046
 20
7395302.55814135
 10
455892.619278001
 20
7395302.55814135
 10
455892.619278001
 20
7395273.2709614
 10
455921.906457957
 20
7395273.2709614
 10
455921.906457957
 20
7395214.69660148
 10
455980.480817867
 20
7395214.69660148
 10
455980.480817867
 20
7395243.98378144
 10
456009.767997822
 20
7395243.98378144
 10
456009.767997822
 20
7395273.2709614
 10
456039.055177777
 20
7395273.2709614
 10
456039.055177777
 20
7395302.55814135
 10
456097.629537687
 20
7395302.55814135
 10
456097.629537687
 20
7395331.84532131
 10
456126.916717643
 20
7395331.84532131
 10
456126.916717643
 20
7395361.13250126
 10
456156.203897598
 20
7395361.13250126
 10
456156.203897598
 20
7395390.41968122
 10
456214.778257508
 20
7395390.41968122
 10
456214.778257508
 20
7395419.70686117
 10
456244.065437463
 20
7395419.70686117
 10
456244.065437463
 20
7395448.99404113
 10
456273.352617418
 20
7395448.99404113
 10
456273.352617418
 20
7395478.28122108
 10
456302.639797374
 20
7395478.28122108
 10
456302.639797374
 20
7395507.56840104
 10
456361.214157284
 20
7395507.56840104
 10
456361.214157284
 20
7395536.85558099
 10
456419.788517194
 20
7395536.85558099
 10
456419.788517194
 20
7395566.14276095
 10
456449.075697149
 20
7395566.14276095
 10
456449.075697149
 20
7395595.4299409
 10
456478.362877104
 20
7395595.4299409
 10
456478.362877104
 20
7395624.71712086
 10
456507.65005706
 20
7395624.71712086
 10
456507.65005706
 20
7395771.15302063
 10
456478.362877104
 20
7395771.15302063
 10
456478.362877104
 20
7395800.44020059
 10
456390.501337239
 20
7395800.44020059
 10
456390.501337239
 20
7395829.72738054
 10
456331.926977329
 20
7395829.72738054
 10
456331.926977329
 20
7395976.16328032
 10
456302.639797374
 20
7395976.16328032
 10
456302.639797374
 20
7396093.31200014
 10
456449.075697149
 20
7396093.31200014
 10
456449.075697149
 20
7396122.59918009
 10
456507.65005706
 20
7396122.59918009
 10
456507.65005706
 20
7396151.88636005
 10
456536.937237015
 20
7396151.88636005
 10
456536.937237015
 20
7396210.46071996
 10
456566.22441697
 20
7396210.46071996
 10
456566.22441697
 20
7396239.74789992
 10
456595.511596925
 20
7396239.74789992
 10
456595.511596925
 20
7396269.03507987
 10
456624.79877688
 20
7396269.03507987
 10
456624.79877688
 20
7396239.74789992
 10
456654.085956835
 20
7396239.74789992
 10
456654.085956835
 20
7396210.46071996
 10
456712.660316746
 20
7396210.46071996
 10
456712.660316746
 20
7396181.17354001
 10
456771.234676656
 20
7396181.17354001
 10
456771.234676656
 20
7396122.59918009
 10
456800.521856611
 20
7396122.59918009
 10
456800.521856611
 20
7396093.31200014
 10
456829.809036566
 20
7396093.31200014
 10
456829.809036566
 20
7396064.02482018
 10
456859.096216521
 20
7396064.02482018
 10
456859.096216521
 20
7396034.73764023
 10
456976.244936342
 20
7396034.73764023
 10
456976.244936342
 20
7396064.02482018
 10
457034.819296252
 20
7396064.02482018
 10
457034.819296252
 20
7396093.31200014
 10
457064.106476207
 20
7396093.31200014
 10
457064.106476207
 20
7396122.59918009
 10
457093.393656163
 20
7396122.59918009
 10
457093.393656163
 20
7396181.17354001
 10
457122.680836118
 20
7396181.17354001
 10
457122.680836118
 20
7396210.46071996
 10
457181.255196028
 20
7396210.46071996
 10
457181.255196028
 20
7396239.74789992
 10
457327.691095804
 20
7396239.74789992
 10
457327.691095804
 20
7396269.03507987
 10
457356.978275759
 20
7396269.03507987
 10
457356.978275759
 20
7396151.88636005
 10
457386.265455714
 20
7396151.88636005
 10
457386.265455714
 20
7396064.02482018
 10
457415.552635669
 20
7396064.02482018
 10
457415.552635669
 20
7396034.73764023
 10
457444.839815624
 20
7396034.73764023
 10
457444.839815624
 20
7396005.45046027
 10
457503.414175535
 20
7396005.45046027
 10
457503.414175535
 20
7395917.58892041
 10
457532.70135549
 20
7395917.58892041
 10
457532.70135549
 20
7395888.30174045
 10
457561.988535445
 20
7395888.30174045
 10
457561.988535445
 20
7395859.0145605
 10
457591.2757154
 20
7395859.0145605
 10
457591.2757154
 20
7395800.44020059
 10
457884.147514952
 20
7395800.44020059
 10
457884.147514952
 20
7395976.16328032
 10
458030.583414727
 20
7395976.16328032
 10
458030.583414727
 20
7396005.45046027
 10
458177.019314503
 20
7396005.45046027
 10
458177.019314503
 20
7396034.73764023
 10
458206.306494458
 20
7396034.73764023
 10
458206.306494458
 20
7396151.88636005
 10
458235.593674413
 20
7396151.88636005
 10
458235.593674413
 20
7396181.17354001
 10
458264.880854369
 20
7396181.17354001
 10
458264.880854369
 20
7396210.46071996
 10
458323.455214279
 20
7396210.46071996
 10
458323.455214279
 20
7396181.17354001
 10
458382.029574189
 20
7396181.17354001
 10
458382.029574189
 20
7396151.88636005
 10
458411.316754144
 20
7396151.88636005
 10
458411.316754144
 20
7396093.31200014
 10
458440.603934099
 20
7396093.31200014
 10
458440.603934099
 20
7396064.02482018
 10
458499.17829401
 20
7396064.02482018
 10
458499.17829401
 20
7396034.73764023
 10
458528.465473965
 20
7396034.73764023
 10
458528.465473965
 20
7396005.45046027
 10
458645.614193785
 20
7396005.45046027
 10
458645.614193785
 20
7395976.16328032
 10
458674.901373741
 20
7395976.16328032
 10
458674.901373741
 20
7395946.87610036
 10
458704.188553696
 20
7395946.87610036
 10
458704.188553696
 20
7395917.58892041
 10
458733.475733651
 20
7395917.58892041
 10
458733.475733651
 20
7395829.72738054
 10
458762.762913606
 20
7395829.72738054
 10
458762.762913606
 20
7395800.44020059
 10
458792.050093561
 20
7395800.44020059
 10
458792.050093561
 20
7395741.86584068
 10
458821.337273516
 20
7395741.86584068
 10
458821.337273516
 20
7395624.71712086
 10
458850.624453471
 20
7395624.71712086
 10
458850.624453471
 20
7395595.4299409
 10
458879.911633427
 20
7395595.4299409
 10
458879.911633427
 20
7395624.71712086
 10
458938.485993337
 20
7395624.71712086
 10
458938.485993337
 20
7395654.00430081
 10
458967.773173292
 20
7395654.00430081
 10
458967.773173292
 20
7395624.71712086
 10
458997.060353247
 20
7395624.71712086
 10
458997.060353247
 20
7395595.4299409
 10
459055.634713157
 20
7395595.4299409
 10
459055.634713157
 20
7395566.14276095
 10
459084.921893113
 20
7395566.14276095
 10
459084.921893113
 20
7395536.85558099
 10
459114.209073068
 20
7395536.85558099
 10
459114.209073068
 20
7395507.56840104
 10
459143.496253023
 20
7395507.56840104
 10
459143.496253023
 20
7395536.85558099
 10
459172.783432978
 20
7395536.85558099
 10
459172.783432978
 20
7395566.14276095
 10
459231.357792888
 20
7395566.14276095
 10
459231.357792888
 20
7395595.4299409
 10
459289.932152799
 20
7395595.4299409
 10
459289.932152799
 20
7395566.14276095
 10
459377.793692664
 20
7395566.14276095
 10
459377.793692664
 20
7395595.4299409
 10
459436.368052574
 20
7395595.4299409
 10
459436.368052574
 20
7395683.29148077
 10
459465.65523253
 20
7395683.29148077
 10
459465.65523253
 20
7395712.57866072
 10
459494.942412485
 20
7395712.57866072
 10
459494.942412485
 20
7395741.86584068
 10
459670.665492216
 20
7395741.86584068
 10
459670.665492216
 20
7395771.15302063
 10
459699.952672171
 20
7395771.15302063
 10
459699.952672171
 20
7395829.72738054
 10
459729.239852126
 20
7395829.72738054
 10
459729.239852126
 20
7395888.30174045
 10
459758.527032081
 20
7395888.30174045
 10
459758.527032081
 20
7395917.58892041
 10
459787.814212036
 20
7395917.58892041
 10
459787.814212036
 20
7395946.87610036
 10
459817.101391991
 20
7395946.87610036
 10
459817.101391991
 20
7395976.16328032
 10
459846.388571947
 20
7395976.16328032
 10
459846.388571947
 20
7396005.45046027
 10
459904.962931857
 20
7396005.45046027
 10
459904.962931857
 20
7395976.16328032
 10
459934.250111812
 20
7395976.16328032
 10
459934.250111812
 20
7395946.87610036
 10
459963.537291767
 20
7395946.87610036
 10
459963.537291767
 20
7395917.58892041
 10
460051.398831633
 20
7395917.58892041
 10
460051.398831633
 20
7395888.30174045
 10
460080.686011588
 20
7395888.30174045
 10
460080.686011588
 20
7395859.0145605
 10
460109.973191543
 20
7395859.0145605
 10
460109.973191543
 20
7395829.72738054
 10
460139.260371498
 20
7395829.72738054
 10
460139.260371498
 20
7395859.0145605
 10
460314.983451229
 20
7395859.0145605
 10
460314.983451229
 20
7395829.72738054
 10
460344.270631184
 20
7395829.72738054
 10
460344.270631184
 20
7395859.0145605
 10
460402.844991094
 20
7395859.0145605
 10
460402.844991094
 20
7395888.30174045
 10
460432.132171049
 20
7395888.30174045
 10
460432.132171049
 20
7395917.58892041
 10
460461.419351005
 20
7395917.58892041
 10
460461.419351005
 20
7395946.87610036
 10
460490.70653096
 20
7395946.87610036
 10
460490.70653096
 20
7396005.45046027
 10
460519.993710915
 20
7396005.45046027
 10
460519.993710915
 20
7396064.02482018
 10
460490.70653096
 20
7396064.02482018
 10
460490.70653096
 20
7396151.88636005
 10
460461.419351005
 20
7396151.88636005
 10
460461.419351005
 20
7396210.46071996
 10
460432.132171049
 20
7396210.46071996
 10
460432.132171049
 20
7396269.03507987
 10
460461.419351005
 20
7396269.03507987
 10
460461.419351005
 20
7396327.60943978
 10
460490.70653096
 20
7396327.60943978
 10
460490.70653096
 20
7396356.89661974
 10
460519.993710915
 20
7396356.89661974
 10
460519.993710915
 20
7396415.47097965
 10
460549.28089087
 20
7396415.47097965
 10
460549.28089087
 20
7396503.33251951
 10
460578.568070825
 20
7396503.33251951
 10
460578.568070825
 20
7396532.61969947
 10
460695.716790646
 20
7396532.61969947
 10
460695.716790646
 20
7396561.90687942
 10
460725.003970601
 20
7396561.90687942
 10
460725.003970601
 20
7396591.19405938
 10
460754.291150556
 20
7396591.19405938
 10
460754.291150556
 20
7396620.48123933
 10
460783.578330511
 20
7396620.48123933
 10
460783.578330511
 20
7396649.76841929
 10
460812.865510466
 20
7396649.76841929
 10
460812.865510466
 20
7396679.05559924
 10
461017.875770152
 20
7396679.05559924
 10
461017.875770152
 20
7396708.3427792
 10
461047.162950108
 20
7396708.3427792
 10
461047.162950108
 20
7396766.91713911
 10
461076.450130063
 20
7396766.91713911
 10
461076.450130063
 20
7396825.49149902
 10
461105.737310018
 20
7396825.49149902
 10
461105.737310018
 20
7396854.77867897
 10
461135.024489973
 20
7396854.77867897
 10
461135.024489973
 20
7396884.06585893
 10
461164.311669928
 20
7396884.06585893
 10
461164.311669928
 20
7396913.35303888
 10
461310.747569704
 20
7396913.35303888
 10
461310.747569704
 20
7396971.92739879
 10
461340.034749659
 20
7396971.92739879
 10
461340.034749659
 20
7397030.5017587
 10
461369.321929614
 20
7397030.5017587
 10
461369.321929614
 20
7397089.07611861
 10
461398.609109569
 20
7397089.07611861
 10
461398.609109569
 20
7397206.22483844
 10
461427.896289525
 20
7397206.22483844
 10
461427.896289525
 20
7397323.37355826
 10
461603.619369255
 20
7397323.37355826
 10
461603.619369255
 20
7397352.66073821
 10
461632.906549211
 20
7397352.66073821
 10
461632.906549211
 20
7397381.94791817
 10
461662.193729166
 20
7397381.94791817
 10
461662.193729166
 20
7397352.66073821
 10
461808.629628941
 20
7397352.66073821
 10
461808.629628941
 20
7397323.37355826
 10
461867.203988852
 20
7397323.37355826
 10
461867.203988852
 20
7397264.79919835
 10
461896.491168807
 20
7397264.79919835
 10
461896.491168807
 20
7397206.22483844
 10
461925.778348762
 20
7397206.22483844
 10
461925.778348762
 20
7397147.65047853
 10
461955.065528717
 20
7397147.65047853
 10
461955.065528717
 20
7397059.78893866
 10
461984.352708672
 20
7397059.78893866
 10
461984.352708672
 20
7397030.5017587
 10
462013.639888628
 20
7397030.5017587
 10
462013.639888628
 20
7397001.21457875
 10
462042.927068583
 20
7397001.21457875
 10
462042.927068583
 20
7396796.20431906
 10
462072.214248538
 20
7396796.20431906
 10
462072.214248538
 20
7396649.76841929
 10
462101.501428493
 20
7396649.76841929
 10
462101.501428493
 20
7396591.19405938
 10
462130.788608448
 20
7396591.19405938
 10
462130.788608448
 20
7396561.90687942
 10
462160.075788403
 20
7396561.90687942
 10
462160.075788403
 20
7396532.61969947
 10
462101.501428493
 20
7396532.61969947
 10
462101.501428493
 20
7396503.33251951
 10
462072.214248538
 20
7396503.33251951
 10
462072.214248538
 20
7396474.04533956
 10
462042.927068583
 20
7396474.04533956
 10
462042.927068583
 20
7396386.18379969
 10
462013.639888628
 20
7396386.18379969
 10
462013.639888628
 20
7396298.32225983
 10
461984.352708672
 20
7396298.32225983
 10
461984.352708672
 20
7396269.03507987
 10
461955.065528717
 20
7396269.03507987
 10
461955.065528717
 20
7396210.46071996
 10
461925.778348762
 20
7396210.46071996
 10
461925.778348762
 20
7396093.31200014
 10
461955.065528717
 20
7396093.31200014
 10
461955.065528717
 20
7395917.58892041
 10
461925.778348762
 20
7395917.58892041
 10
461925.778348762
 20
7395829.72738054
 10
461837.916808897
 20
7395829.72738054
 10
461837.916808897
 20
7395800.44020059
 10
461779.342448986
 20
7395800.44020059
 10
461779.342448986
 20
7395771.15302063
 10
461720.768089076
 20
7395771.15302063
 10
461720.768089076
 20
7395741.86584068
 10
461691.480909121
 20
7395741.86584068
 10
461691.480909121
 20
7395771.15302063
 10
461603.619369255
 20
7395771.15302063
 10
461603.619369255
 20
7395800.44020059
 10
461515.75782939
 20
7395800.44020059
 10
461515.75782939
 20
7395829.72738054
 10
461457.18346948
 20
7395829.72738054
 10
461457.18346948
 20
7395800.44020059
 10
461281.460389749
 20
7395800.44020059
 10
461281.460389749
 20
7395683.29148077
 10
461310.747569704
 20
7395683.29148077
 10
461310.747569704
 20
7395654.00430081
 10
461340.034749659
 20
7395654.00430081
 10
461340.034749659
 20
7395566.14276095
 10
461369.321929614
 20
7395566.14276095
 10
461369.321929614
 20
7395448.99404113
 10
461340.034749659
 20
7395448.99404113
 10
461340.034749659
 20
7395361.13250126
 10
461369.321929614
 20
7395361.13250126
 10
461369.321929614
 20
7395243.98378144
 10
461310.747569704
 20
7395243.98378144
 10
461310.747569704
 20
7395214.69660148
 10
461281.460389749
 20
7395214.69660148
 10
461281.460389749
 20
7395185.40942153
 10
461135.024489973
 20
7395185.40942153
 10
461135.024489973
 20
7395097.54788166
 10
461222.886029838
 20
7395097.54788166
 10
461222.886029838
 20
7394951.11198189
 10
461193.598849883
 20
7394951.11198189
 10
461193.598849883
 20
7394892.53762198
 10
461164.311669928
 20
7394892.53762198
 10
461164.311669928
 20
7394833.96326207
 10
461076.450130063
 20
7394833.96326207
 10
461076.450130063
 20
7394804.67608211
 10
461017.875770152
 20
7394804.67608211
 10
461017.875770152
 20
7394775.38890216
 10
460988.588590197
 20
7394775.38890216
 10
460988.588590197
 20
7394628.95300238
 10
461017.875770152
 20
7394628.95300238
 10
461017.875770152
 20
7394570.37864247
 10
460988.588590197
 20
7394570.37864247
 10
460988.588590197
 20
7394511.80428256
 10
460959.301410242
 20
7394511.80428256
 10
460959.301410242
 20
7394482.51710261
 10
460900.727050332
 20
7394482.51710261
 10
460900.727050332
 20
7394423.9427427
 10
460871.439870377
 20
7394423.9427427
 10
460871.439870377
 20
7394306.79402288
 10
460842.152690422
 20
7394306.79402288
 10
460842.152690422
 20
7394277.50684292
 10
460812.865510466
 20
7394277.50684292
 10
460812.865510466
 20
7394189.64530305
 10
460842.152690422
 20
7394189.64530305
 10
460842.152690422
 20
7394101.78376319
 10
460754.291150556
 20
7394101.78376319
 10
460754.291150556
 20
7394072.49658323
 10
460725.003970601
 20
7394072.49658323
 10
460725.003970601
 20
7394043.20940328
 10
460666.429610691
 20
7394043.20940328
 10
460666.429610691
 20
7393984.63504337
 10
460637.142430736
 20
7393984.63504337
 10
460637.142430736
 20
7393896.7735035
 10
460578.568070825
 20
7393896.7735035
 10
460578.568070825
 20
7393867.48632355
 10
460549.28089087
 20
7393867.48632355
 10
460549.28089087
 20
7393838.19914359
 10
460519.993710915
 20
7393838.19914359
 10
460519.993710915
 20
7393311.0299044
 10
460490.70653096
 20
7393311.0299044
 10
460490.70653096
 20
7393281.74272445
 10
460461.419351005
 20
7393281.74272445
 10
460461.419351005
 20
7393252.45554449
 10
460402.844991094
 20
7393252.45554449
 10
460402.844991094
 20
7393223.16836454
 10
460285.696271274
 20
7393223.16836454
 10
460285.696271274
 20
7393047.4452848
 10
460139.260371498
 20
7393047.4452848
 10
460139.260371498
 20
7393018.15810485
 10
460051.398831633
 20
7393018.15810485
 10
460051.398831633
 20
7392988.87092489
 10
459963.537291767
 20
7392988.87092489
 10
459963.537291767
 20
7392959.58374494
 10
459904.962931857
 20
7392959.58374494
 10
459904.962931857
 20
7392930.29656498
 10
459817.101391991
 20
7392930.29656498
 10
459817.101391991
 20
7392901.00938503
 10
459787.814212036
 20
7392901.00938503
 10
459787.814212036
 20
7392871.72220507
 10
459758.527032081
 20
7392871.72220507
 10
459758.527032081
 20
7392842.43502512
 10
459641.37831226
 20
7392842.43502512
 10
459641.37831226
 20
7392813.14784516
 10
459612.091132305
 20
7392813.14784516
 10
459612.091132305
 20
7392842.43502512
 10
459553.516772395
 20
7392842.43502512
 10
459553.516772395
 20
7392783.86066521
 10
459524.22959244
 20
7392783.86066521
 10
459524.22959244
 20
7392754.57348525
 10
459494.942412485
 20
7392754.57348525
 10
459494.942412485
 20
7392725.2863053
 10
459436.368052574
 20
7392725.2863053
 10
459436.368052574
 20
7392695.99912534
 10
459348.506512709
 20
7392695.99912534
 10
459348.506512709
 20
7392666.71194539
 10
459260.644972844
 20
7392666.71194539
 10
459260.644972844
 20
7392637.42476543
 10
459231.357792888
 20
7392637.42476543
 10
459231.357792888
 20
7392608.13758548
 10
459114.209073068
 20
7392608.13758548
 10
459114.209073068
 20
7392549.56322557
 10
459055.634713157
 20
7392549.56322557
 10
459055.634713157
 20
7392520.27604561
 10
459026.347533202
 20
7392520.27604561
 10
459026.347533202
 20
7392490.98886566
 10
458997.060353247
 20
7392490.98886566
 10
458997.060353247
 20
7392432.41450575
 10
458967.773173292
 20
7392432.41450575
 10
458967.773173292
 20
7392403.12732579
 10
458938.485993337
 20
7392403.12732579
 10
458938.485993337
 20
7392373.84014584
 10
458909.198813382
 20
7392373.84014584
 10
458909.198813382
 20
7392344.55296588
 10
458879.911633427
 20
7392344.55296588
 10
458879.911633427
 20
7392315.26578593
 10
458850.624453471
 20
7392315.26578593
 10
458850.624453471
 20
7392285.97860597
 10
458821.337273516
 20
7392285.97860597
 10
458821.337273516
 20
7392256.69142602
 10
458762.762913606
 20
7392256.69142602
 10
458762.762913606
 20
7392168.82988615
 10
458733.475733651
 20
7392168.82988615
 10
458733.475733651
 20
7392110.25552624
 10
458704.188553696
 20
7392110.25552624
 10
458704.188553696
 20
7392080.96834628
 10
458674.901373741
 20
7392080.96834628
 10
458674.901373741
 20
7392051.68116633
 10
458645.614193785
 20
7392051.68116633
 10
458645.614193785
 20
7392022.39398637
 10
458616.32701383
 20
7392022.39398637
 10
458616.32701383
 20
7391993.10680642
 10
458587.039833875
 20
7391993.10680642
 10
458587.039833875
 20
7391963.81962646
 10
458557.75265392
 20
7391963.81962646
 10
458557.75265392
 20
7391934.53244651
 10
458528.465473965
 20
7391934.53244651
 10
458528.465473965
 20
7391875.9580866
 10
458469.891114055
 20
7391875.9580866
 10
458469.891114055
 20
7391817.38372669
 10
458440.603934099
 20
7391817.38372669
 10
458440.603934099
 20
7391788.09654673
 10
458411.316754144
 20
7391788.09654673
 10
458411.316754144
 20
7391729.52218682
 10
458382.029574189
 20
7391729.52218682
 10
458382.029574189
 20
7391670.94782691
 10
458352.742394234
 20
7391670.94782691
 10
458352.742394234
 20
7390850.90678817
 10
458411.316754144
 20
7390850.90678817
 10
458411.316754144
 20
7390821.61960821
 10
458440.603934099
 20
7390821.61960821
 10
458440.603934099
 20
7390792.33242826
 10
458469.891114055
 20
7390792.33242826
 10
458469.891114055
 20
7390763.0452483
 10
458499.17829401
 20
7390763.0452483
 10
458499.17829401
 20
7390733.75806835
 10
458528.465473965
 20
7390733.75806835
 10
458528.465473965
 20
7390616.60934853
 10
458499.17829401
 20
7390616.60934853
 10
458499.17829401
 20
7390587.32216857
 10
458469.891114055
 20
7390587.32216857
 10
458469.891114055
 20
7390499.46062871
 10
458440.603934099
 20
7390499.46062871
 10
458440.603934099
 20
7390440.8862688
 10
458469.891114055
 20
7390440.8862688
 10
458469.891114055
 20
7390323.73754898
 10
458499.17829401
 20
7390323.73754898
 10
458499.17829401
 20
7390177.3016492
 10
458469.891114055
 20
7390177.3016492
 10
458469.891114055
 20
7390089.44010933
 10
458440.603934099
 20
7390089.44010933
 10
458440.603934099
 20
7390030.86574942
 10
458411.316754144
 20
7390030.86574942
 10
458411.316754144
 20
7389943.00420956
 10
458382.029574189
 20
7389943.00420956
 10
458382.029574189
 20
7389737.99394987
 10
458352.742394234
 20
7389737.99394987
 10
458352.742394234
 20
7389708.70676992
 10
458294.168034324
 20
7389708.70676992
 10
458294.168034324
 20
7389679.41958996
 10
458264.880854369
 20
7389679.41958996
 10
458264.880854369
 20
7389650.13241001
 10
458235.593674413
 20
7389650.13241001
 10
458235.593674413
 20
7389620.84523005
 10
458206.306494458
 20
7389620.84523005
 10
458206.306494458
 20
7389591.5580501
 10
458177.019314503
 20
7389591.5580501
 10
458177.019314503
 20
7389532.98369019
 10
458147.732134548
 20
7389532.98369019
 10
458147.732134548
 20
7389503.69651023
 10
458118.444954593
 20
7389503.69651023
 10
458118.444954593
 20
7389474.40933028
 10
458059.870594682
 20
7389474.40933028
 10
458059.870594682
 20
7389445.12215032
 10
458001.296234772
 20
7389445.12215032
 10
458001.296234772
 20
7389415.83497037
 10
457942.721874862
 20
7389415.83497037
 10
457942.721874862
 20
7389298.68625055
 10
457913.434694907
 20
7389298.68625055
 10
457913.434694907
 20
7389269.39907059
 10
457884.147514952
 20
7389269.39907059
 10
457884.147514952
 20
7389152.25035077
 10
457796.285975086
 20
7389152.25035077
 10
457796.285975086
 20
7389122.96317081
 10
457766.998795131
 20
7389122.96317081
 10
457766.998795131
 20
7388917.95291113
 10
457737.711615176
 20
7388917.95291113
 10
457737.711615176
 20
7388800.80419131
 10
457708.424435221
 20
7388800.80419131
 10
457708.424435221
 20
7388771.51701135
 10
457679.137255265
 20
7388771.51701135
 10
457679.137255265
 20
7388712.94265144
 10
457649.85007531
 20
7388712.94265144
 10
457649.85007531
 20
7388566.50675167
 10
457561.988535445
 20
7388566.50675167
 10
457561.988535445
 20
7388537.21957171
 10
457503.414175535
 20
7388537.21957171
 10
457503.414175535
 20
7388507.93239176
 10
457474.126995579
 20
7388507.93239176
 10
457474.126995579
 20
7388478.6452118
 10
457444.839815624
 20
7388478.6452118
 10
457444.839815624
 20
7388420.07085189
 10
457386.265455714
 20
7388420.07085189
 10
457386.265455714
 20
7388390.78367194
 10
457356.978275759
 20
7388390.78367194
 10
457356.978275759
 20
7388361.49649198
 10
457327.691095804
 20
7388361.49649198
 10
457327.691095804
 20
7388332.20931203
 10
457298.403915849
 20
7388332.20931203
 10
457298.403915849
 20
7388302.92213207
 10
457239.829555938
 20
7388302.92213207
 10
457239.829555938
 20
7388273.63495211
 10
457151.968016073
 20
7388273.63495211
 10
457151.968016073
 20
7388244.34777216
 10
457122.680836118
 20
7388244.34777216
 10
457122.680836118
 20
7388215.06059221
 10
457093.393656163
 20
7388215.06059221
 10
457093.393656163
 20
7388185.77341225
 10
457064.106476207
 20
7388185.77341225
 10
457064.106476207
 20
7388156.48623229
 10
456976.244936342
 20
7388156.48623229
 10
456976.244936342
 20
7388127.19905234
 10
456917.670576432
 20
7388127.19905234
 10
456917.670576432
 20
7388097.91187238
 10
456888.383396477
 20
7388097.91187238
 10
456888.383396477
 20
7387951.47597261
 10
456829.809036566
 20
7387951.47597261
 10
456829.809036566
 20
7387892.9016127
 10
456800.521856611
 20
7387892.9016127
 10
456800.521856611
 20
7387863.61443274
 10
456771.234676656
 20
7387863.61443274
 10
456771.234676656
 20
7387834.32725279
 10
456741.947496701
 20
7387834.32725279
 10
456741.947496701
 20
7387805.04007283
 10
456712.660316746
 20
7387805.04007283
 10
456712.660316746
 20
7387775.75289288
 10
456683.37313679
 20
7387775.75289288
 10
456683.37313679
 20
7387746.46571292
 10
456624.79877688
 20
7387746.46571292
 10
456624.79877688
 20
7387775.75289288
 10
456595.511596925
 20
7387775.75289288
 10
456595.511596925
 20
7387805.04007283
 10
456566.22441697
 20
7387805.04007283
 10
456566.22441697
 20
7387834.32725279
 10
456507.65005706
 20
7387834.32725279
 10
456507.65005706
 20
7387863.61443274
 10
456478.362877104
 20
7387863.61443274
 10
456478.362877104
 20
7387892.9016127
 10
456449.075697149
 20
7387892.9016127
 10
456449.075697149
 20
7387863.61443274
 10
456419.788517194
 20
7387863.61443274
 10
456419.788517194
 20
7387892.9016127
 10
456390.501337239
 20
7387892.9016127
 10
456390.501337239
 20
7387922.18879265
 10
456361.214157284
 20
7387922.18879265
 10
456361.214157284
 20
7387951.47597261
 10
456331.926977329
 20
7387951.47597261
 10
456331.926977329
 20
7387892.9016127
 10
456302.639797374
 20
7387892.9016127
 10
456302.639797374
 20
7387863.61443274
 10
456273.352617418
 20
7387863.61443274
 10
456273.352617418
 20
7387834.32725279
 10
456244.065437463
 20
7387834.32725279
 10
456244.065437463
 20
7387805.04007283
 10
456185.491077553
 20
7387805.04007283
 10
456185.491077553
 20
7387834.32725279
 10
456126.916717643
 20
7387834.32725279
 10
456126.916717643
 20
7387805.04007283
 10
456097.629537687
 20
7387805.04007283
 10
456097.629537687
 20
7387775.75289288
 10
456009.767997822
 20
7387775.75289288
 10
456009.767997822
 20
7387805.04007283
 10
455951.193637912
 20
7387805.04007283
 10
455951.193637912
 20
7387775.75289288
 10
455863.332098046
 20
7387775.75289288
 10
455863.332098046
 20
7387805.04007283
 10
455834.044918091
 20
7387805.04007283
 10
455834.044918091
 20
7387834.32725279
 10
455687.609018315
 20
7387834.32725279
 10
455687.609018315
 20
7387805.04007283
 10
455629.034658405
 20
7387805.04007283
 10
455629.034658405
 20
7387775.75289288
 10
455394.737218764
 20
7387775.75289288
 10
455394.737218764
 20
7387746.46571292
 10
455336.162858854
 20
7387746.46571292
 10
455336.162858854
 20
7387717.17853297
 10
455277.588498943
 20
7387717.17853297
 10
455277.588498943
 20
7387687.89135301
 10
454984.716699392
 20
7387687.89135301
 10
454984.716699392
 20
7387717.17853297
 10
454955.429519437
 20
7387717.17853297
 10
454955.429519437
 20
7387746.46571292
 10
454926.142339482
 20
7387746.46571292
 10
454926.142339482
 20
7387775.75289288
 10
454808.993619661
 20
7387775.75289288
 10
454808.993619661
 20
7387746.46571292
 10
454779.706439706
 20
7387746.46571292
 10
454779.706439706
 20
7387717.17853297
 10
454750.419259751
 20
7387717.17853297
 10
454750.419259751
 20
7387687.89135301
 10
454721.132079796
 20
7387687.89135301
 10
454721.132079796
 20
7387658.60417306
 97
0
 75
0
 76
1
 98
0
  0
ENDSEC
  0
SECTION
  2
OBJECTS
  0
DICTIONARY
  5
C
330
0
100
AcDbDictionary
281
     1
  3
ACAD_GROUP
350
D
  3
ACAD_LAYOUT
350
1A
  3
ACAD_MLEADERSTYLE
350
43
  3
ACAD_PLOTSETTINGS
350
19
  3
ACAD_PLOTSTYLENAME
350
E
  3
ACAD_TABLESTYLE
350
42
  0
DICTIONARY
  5
D
102
{ACAD_REACTORS
330
C
102
}
330
C
100
AcDbDictionary
281
     1
  0
DICTIONARY
  5
1A
102
{ACAD_REACTORS
330
C
102
}
330
C
100
AcDbDictionary
281
     1
  3
Layout1
350
1E
  3
Model
350
22
  0
DICTIONARY
  5
43
102
{ACAD_REACTORS
330
C
102
}
330
C
100
AcDbDictionary
281
     1
  0
DICTIONARY
  5
19
102
{ACAD_REACTORS
330
C
102
}
330
C
100
AcDbDictionary
281
     1
  0
ACDBDICTIONARYWDFLT
  5
E
102
{ACAD_REACTORS
330
C
102
}
330
C
100
AcDbDictionary
281
     1
  3
Normal
350
F
100
AcDbDictionaryWithDefault
340
F
  0
DICTIONARY
  5
42
102
{ACAD_REACTORS
330
C
102
}
330
C
100
AcDbDictionary
281
     1
  0
LAYOUT
  5
1E
102
{ACAD_REACTORS
330
1A
102
}
330
1A
100
AcDbPlotSettings
  1

  2
none_device
  4

  6

 40
0.0
 41
0.0
 42
0.0
 43
0.0
 44
0.0
 45
0.0
 46
0.0
 47
0.0
 48
0.0
 49
0.0
140
0.0
141
0.0
142
1.0
143
1.0
 70
   688
 72
     0
 73
     0
 74
     5
  7

 75
    16
 76
     0
 77
     2
 78
   300
147
1.0
148
0.0
149
0.0
100
AcDbLayout
  1
Layout1
 70
     1
 71
     1
 10
0.0
 20
0.0
 11
12.0
 21
9.0
 12
0.0
 22
0.0
 32
0.0
 14
1.000000000000000E+20
 24
1.000000000000000E+20
 34
1.000000000000000E+20
 15
-1.000000000000000E+20
 25
-1.000000000000000E+20
 35
-1.000000000000000E+20
146
0.0
 13
0.0
 23
0.0
 33
0.0
 16
1.0
 26
0.0
 36
0.0
 17
0.0
 27
1.0
 37
0.0
 76
     0
330
1B
  0
LAYOUT
  5
22
102
{ACAD_REACTORS
330
1A
102
}
330
1A
100
AcDbPlotSettings
  1

  2
none_device
  4

  6

 40
0.0
 41
0.0
 42
0.0
 43
0.0
 44
0.0
 45
0.0
 46
0.0
 47
0.0
 48
0.0
 49
0.0
140
0.0
141
0.0
142
1.0
143
1.0
 70
  1712
 72
     0
 73
     0
 74
     0
  7

 75
     0
 76
     0
 77
     2
 78
   300
147
1.0
148
0.0
149
0.0
100
AcDbLayout
  1
Model
 70
     1
 71
     0
 10
0.0
 20
0.0
 11
12.0
 21
9.0
 12
0.0
 22
0.0
 32
0.0
 14
30.0
 24
49.75
 34
0.0
 15
130.5
 25
163.1318914119703
 35
0.0
146
0.0
 13
0.0
 23
0.0
 33
0.0
 16
1.0
 26
0.0
 36
0.0
 17
0.0
 27
1.0
 37
0.0
 76
     0
330
1F
331
29
  0
ACDBPLACEHOLDER
  5
F
102
{ACAD_REACTORS
330
E
102
}
330
E
  0
ENDSEC
  0
EOF
